<svg xmlns="http://www.w3.org/2000/svg" viewBox="249.0 217.5 493.00 64.50" role="img" aria-label="CARBONIX"><path fill="currentColor" d="M 280.605469 280.65625 C 276.175781 280.65625 272.089844 280 268.34375 278.695312 C 264.597656 277.386719 261.378906 275.441406 258.683594 272.851562 C 255.988281 270.265625 253.902344 267.039062 252.421875 263.171875 C 250.945312 259.308594 250.203125 254.839844 250.203125 249.773438 C 250.203125 245.054688 250.910156 240.773438 252.324219 236.933594 C 253.738281 233.09375 255.789062 229.800781 258.484375 227.054688 C 261.070312 224.414062 264.277344 222.371094 268.105469 220.933594 C 271.929688 219.492188 276.109375 218.769531 280.644531 218.769531 C 283.152344 218.769531 285.410156 218.914062 287.425781 219.191406 C 289.4375 219.472656 291.296875 219.839844 293.003906 220.292969 C 294.792969 220.800781 296.410156 221.367188 297.863281 221.992188 C 299.320312 222.617188 300.589844 223.199219 301.683594 223.730469 L 301.683594 238.171875 L 299.925781 238.171875 C 299.179688 237.535156 298.238281 236.78125 297.105469 235.90625 C 295.972656 235.027344 294.683594 234.167969 293.246094 233.316406 C 291.777344 232.46875 290.191406 231.753906 288.484375 231.167969 C 286.777344 230.585938 284.949219 230.292969 283.003906 230.292969 C 280.84375 230.292969 278.792969 230.632812 276.84375 231.308594 C 274.898438 231.988281 273.097656 233.113281 271.445312 234.683594 C 269.871094 236.199219 268.597656 238.210938 267.625 240.710938 C 266.652344 243.214844 266.164062 246.246094 266.164062 249.8125 C 266.164062 253.539062 266.691406 256.652344 267.742188 259.152344 C 268.796875 261.65625 270.125 263.625 271.722656 265.0625 C 273.351562 266.527344 275.164062 267.570312 277.164062 268.195312 C 279.164062 268.820312 281.136719 269.132812 283.085938 269.132812 C 284.949219 269.132812 286.796875 268.855469 288.625 268.296875 C 290.453125 267.742188 292.136719 266.984375 293.683594 266.027344 C 294.992188 265.261719 296.207031 264.4375 297.324219 263.5625 C 298.445312 262.6875 299.367188 261.929688 300.085938 261.292969 L 301.683594 261.292969 L 301.683594 275.535156 C 300.191406 276.203125 298.765625 276.828125 297.40625 277.414062 C 296.046875 278 294.617188 278.507812 293.125 278.933594 C 291.179688 279.496094 289.351562 279.921875 287.644531 280.214844 C 285.9375 280.507812 283.589844 280.65625 280.605469 280.65625 "/><path fill="currentColor" d="M 344.304688 256.535156 L 336.976562 235.195312 L 329.644531 256.535156 Z M 368.007812 279.492188 L 352.144531 279.492188 L 347.996094 267.453125 L 325.953125 267.453125 L 321.804688 279.492188 L 306.324219 279.492188 L 328.328125 219.929688 L 346.007812 219.929688 Z M 368.007812 279.492188 "/><path fill="currentColor" d="M 409.96875 238.171875 C 409.96875 236.679688 409.664062 235.398438 409.050781 234.332031 C 408.4375 233.265625 407.382812 232.425781 405.890625 231.8125 C 404.847656 231.386719 403.636719 231.125 402.25 231.03125 C 400.863281 230.941406 399.25 230.894531 397.410156 230.894531 L 391.847656 230.894531 L 391.847656 246.933594 L 396.570312 246.933594 C 399.023438 246.933594 401.074219 246.8125 402.730469 246.574219 C 404.382812 246.332031 405.769531 245.789062 406.890625 244.933594 C 407.957031 244.105469 408.734375 243.191406 409.230469 242.191406 C 409.722656 241.191406 409.96875 239.851562 409.96875 238.171875 M 433.929688 279.492188 L 415.167969 279.492188 L 398.964844 257.652344 L 391.847656 257.652344 L 391.847656 279.492188 L 376.570312 279.492188 L 376.570312 219.929688 L 402.328125 219.929688 C 405.847656 219.929688 408.875 220.132812 411.410156 220.53125 C 413.941406 220.933594 416.316406 221.800781 418.53125 223.132812 C 420.769531 224.464844 422.550781 226.191406 423.871094 228.3125 C 425.191406 230.433594 425.851562 233.09375 425.851562 236.292969 C 425.851562 240.691406 424.832031 244.28125 422.789062 247.054688 C 420.75 249.828125 417.835938 252.132812 414.050781 253.972656 Z M 433.929688 279.492188 "/><path fill="currentColor" d="M 475.652344 261.011719 C 475.652344 259.121094 475.289062 257.660156 474.554688 256.632812 C 473.824219 255.605469 472.578125 254.839844 470.824219 254.332031 C 469.625 253.988281 467.972656 253.800781 465.871094 253.773438 C 463.769531 253.746094 461.574219 253.734375 459.285156 253.734375 L 455.933594 253.734375 L 455.933594 268.574219 L 457.050781 268.574219 C 461.359375 268.574219 464.449219 268.5625 466.3125 268.535156 C 468.175781 268.507812 469.890625 268.160156 471.460938 267.492188 C 473.058594 266.828125 474.15625 265.941406 474.753906 264.835938 C 475.351562 263.726562 475.652344 262.453125 475.652344 261.011719 M 471.933594 236.773438 C 471.933594 235.785156 471.683594 234.800781 471.191406 233.8125 C 470.699219 232.824219 469.824219 232.09375 468.570312 231.613281 C 467.453125 231.1875 466.058594 230.953125 464.390625 230.914062 C 462.726562 230.871094 460.386719 230.851562 457.371094 230.851562 L 455.933594 230.851562 L 455.933594 243.453125 L 458.332031 243.453125 C 460.757812 243.453125 462.824219 243.414062 464.53125 243.332031 C 466.238281 243.253906 467.585938 242.988281 468.570312 242.535156 C 469.957031 241.921875 470.867188 241.125 471.292969 240.152344 C 471.71875 239.179688 471.933594 238.054688 471.933594 236.773438 M 491.613281 261.253906 C 491.613281 264.132812 491.035156 266.707031 489.871094 268.972656 C 488.710938 271.242188 487.121094 273.121094 485.09375 274.613281 C 482.746094 276.375 480.167969 277.628906 477.351562 278.375 C 474.539062 279.121094 470.972656 279.496094 466.652344 279.496094 L 440.652344 279.496094 L 440.652344 219.933594 L 463.773438 219.933594 C 468.570312 219.933594 472.085938 220.09375 474.3125 220.410156 C 476.539062 220.730469 478.746094 221.441406 480.933594 222.53125 C 483.199219 223.679688 484.886719 225.21875 485.992188 227.152344 C 487.097656 229.085938 487.652344 231.292969 487.652344 233.773438 C 487.652344 236.652344 486.894531 239.191406 485.375 241.390625 C 483.851562 243.59375 481.707031 245.308594 478.933594 246.53125 L 478.933594 246.851562 C 482.828125 247.628906 485.914062 249.226562 488.191406 251.652344 C 490.472656 254.082031 491.613281 257.28125 491.613281 261.253906 "/><path fill="currentColor" d="M 540.613281 264.8125 C 542.109375 263 543.214844 260.859375 543.933594 258.394531 C 544.65625 255.925781 545.015625 253.027344 545.015625 249.691406 C 545.015625 246.121094 544.601562 243.078125 543.773438 240.574219 C 542.949219 238.066406 541.867188 236.039062 540.535156 234.492188 C 539.175781 232.890625 537.609375 231.734375 535.835938 231.011719 C 534.0625 230.292969 532.214844 229.933594 530.292969 229.933594 C 528.347656 229.933594 526.515625 230.28125 524.792969 230.972656 C 523.074219 231.667969 521.492188 232.8125 520.054688 234.414062 C 518.71875 235.90625 517.632812 237.96875 516.792969 240.59375 C 515.953125 243.21875 515.535156 246.269531 515.535156 249.734375 C 515.535156 253.28125 515.941406 256.300781 516.753906 258.792969 C 517.566406 261.289062 518.640625 263.320312 519.972656 264.894531 C 521.308594 266.46875 522.867188 267.628906 524.652344 268.375 C 526.441406 269.121094 528.320312 269.496094 530.292969 269.496094 C 532.269531 269.496094 534.148438 269.113281 535.933594 268.355469 C 537.722656 267.59375 539.28125 266.414062 540.613281 264.8125 M 560.976562 249.734375 C 560.976562 259.226562 558.253906 266.769531 552.816406 272.355469 C 547.375 277.941406 539.855469 280.734375 530.253906 280.734375 C 520.679688 280.734375 513.175781 277.941406 507.734375 272.355469 C 502.292969 266.769531 499.574219 259.226562 499.574219 249.734375 C 499.574219 240.160156 502.292969 232.59375 507.734375 227.03125 C 513.175781 221.472656 520.679688 218.691406 530.253906 218.691406 C 539.800781 218.691406 547.308594 221.472656 552.777344 227.03125 C 558.242188 232.59375 560.976562 240.160156 560.976562 249.734375 "/><path fill="currentColor" d="M 626.859375 279.496094 L 612.058594 279.496094 L 586.777344 238.613281 L 586.777344 279.496094 L 572.695312 279.496094 L 572.695312 219.933594 L 591.058594 219.933594 L 612.777344 254.054688 L 612.777344 219.933594 L 626.859375 219.933594 Z M 626.859375 279.496094 "/><path fill="currentColor" d="M 674.261719 279.496094 L 639.378906 279.496094 L 639.378906 268.933594 L 649.140625 268.933594 L 649.140625 230.492188 L 639.378906 230.492188 L 639.378906 219.933594 L 674.261719 219.933594 L 674.261719 230.492188 L 664.5 230.492188 L 664.5 268.933594 L 674.261719 268.933594 Z M 674.261719 279.496094 "/><path fill="currentColor" d="M 740.785156 279.496094 L 723 279.496094 L 710.1875 259.945312 L 697.113281 279.496094 L 680.140625 279.496094 L 701.261719 249.488281 L 680.582031 219.933594 L 698.3125 219.933594 L 710.703125 238.476562 L 723.441406 219.933594 L 740.464844 219.933594 L 719.675781 248.863281 Z M 740.785156 279.496094 "/></svg>